<svg xmlns="http://www.w3.org/2000/svg" width="973.6" height="332.455"  xmlns:v="https://vecta.io/nano"><style><![CDATA[.B{fill:none}.C{font-family:Virgil, Segoe UI Emoji}.D{font-size:16px}.E{text-anchor:middle}.F{direction:ltr}.G{stroke:#000}.H{stroke-width:.5}.I{fill:#2b8a3e}.J{stroke:#12b886}.K{fill:#c92a2a}.L{stroke-width:1.5}.M{stroke-dasharray:3 6}.N{stroke-dasharray:3 4}]]></style><defs><style>@font-face{font-family:"Virgil";src:url("https://excalidraw.com/Virgil.woff2")} @font-face{font-family:"Cascadia";src:url("https://excalidraw.com/Cascadia.woff2")}</style></defs><path d="M89.705 267.539l210.838-1.968m-211.703 4.21l210.691-3.026m73.885-2.287l207.556-.25m-209.009-1.046l207.959 2.251m70.341-.129l228.893-5.721m-230.424 4.867l232.61-6.39" class="B G"/><path d="M317.803 266.904c5.365-3.398 8.396-10.31 15.126-19.056m-16.778 19.324c5.998-5.906 13.843-13.797 17.405-18.405m-15.079 20.605c8.343-7.362 15.742-13.108 17.397-19.19M320.695 270.2c4.953-5.875 10.428-12.051 14.676-18.771m-10.976 22.021c1.903-7.044 6.523-11.133 16.585-20.523m-18.648 20.403c5.187-5.144 10.623-11.688 16.731-19.233m-11.616 23.1c3.288-5.542 7.124-10.609 16.547-18.846m-17.826 17.011c3.328-3.471 8.299-8.954 16.236-19.091m-16.07 20.907c5.443-2.233 12.222-8.67 18.984-16.892m-17.944 19.487c3.742-4.588 8.324-8.327 16.418-19.807m-12.913 22.791c3.862-7.707 12.368-14.619 16.784-21.58m-16.2 21.366c4.778-7.074 9.671-11.926 15.41-19.249m-10.294 14.685c-6.969-1.897-9.49-6.654-21.299-17.034m20.336 18.622c-5.334-4.539-7.934-7.73-20.376-17.35m22.414 12.341c-4.723-2.686-7.973-3.028-18.199-15.043m17.354 16.751c-2.726-3.472-6.519-6.111-18.087-17.242m22.345 12.861c-9.627-6.854-17.823-13.433-20.306-13.249m20.16 14.915l-19.389-17.396m23.635 14.345c-5.475-3.148-13.296-9.188-20.792-17.51m18.259 18.056c-2.382-2.902-7.503-7.651-18.617-16.71m23.304 11.58c-3.226-2.261-8.967-3.971-21.646-13.869m20.003 15.188l-19.201-16.491m21.646 13.12c-2.416-1.399-7.394-6.708-19.664-14.561m19.558 15.934c-4.619-5.908-11.336-10.092-18.663-17.45" class="B H J"/><path d="M333.349 248.123c5.168 3.142 11.231 11.908 17.64 18.28m-19.846-18.617c4.674 3.63 9.309 8.2 18.978 16.227m-1.049-.666c-2.853 5.084-7.32 10.853-16.9 19.159m17.527-16.952c-5.766 4.301-11.74 10.857-16.942 17.346m.464-1.515c-5.948-4.597-15.335-10.455-20.474-17.956m19.59 18.419c-6.325-4.794-11.53-9.682-18.285-16.153m-.924-1.934c8.124-4.112 13.138-10.472 18.879-17.75m-18.139 18.047c4.767-4.64 8.812-9.019 19.123-17.37" class="B G"/><path d="M51.711 272.446c2.44-5.486 5.697-10.477 14.692-23.055m-15.706 22.091c4.847-8.927 12.392-16.349 15.597-20.789m-13.156 24.142c6.735-8.366 8.888-13.623 17.019-19.798m-16.867 18.507c3.897-5.196 8.361-10.036 15.352-19.675m-11.86 23.625c6.008-8.507 9.349-11.386 17.339-19.57m-18.59 17.597c5.809-6.679 12.781-12.573 17.228-17.617m-12.272 19.875c6.383-4.689 10.497-13.631 16.013-18.659m-18.072 20.572c7.004-8.663 13.231-15.154 17.639-19.666M61.407 283.05c4.028-8.065 9.93-12.685 15.239-20.299m-15.848 18.509c7.768-6.061 14.122-15.114 17.562-17.034m-14.044 20.745c5.998-3.275 8.322-10.626 16.408-19.909m-17.172 19.121c6.801-6.359 13.526-13.852 16.882-17.339m-14.378 13.871c-3.064-3.991-9.285-5.541-17.206-13.192m19.034 14.127c-5.556-4.568-11.211-10.322-19.49-14.799m20.818 12.717c-2.27-4.272-9.717-10.814-16.004-15.108m16.929 15.383c-5.715-4.718-9.879-10.048-18.615-16.687m20.329 11.25c-1.78-2.278-7.049-7.438-19.431-14.549m21.485 16.166c-5.663-5.054-12.685-8.674-19.745-16.047m23.615 13.592c-5.739-5.366-8.58-7.695-20.159-17.872m18.402 17.346c-3.116-2.072-6.592-6.393-17.466-15.53m19.752 14.35c-1.936-4.977-6.831-6.834-19.676-15.623m21.477 14.617c-6.642-6.102-11.914-10.932-19.457-16.189m19.837 15.15c-3.063-6.358-5.939-9.517-18.28-16.534m19.57 15.032c-4.326-4.478-9.031-7.771-19.489-16.488" class="B H J"/><path d="M64.727 251.561c4.529 2.124 8.359 5.863 15.602 15.409M65.845 249.97c2.365 4.058 6.332 7.711 15.539 17.275m2.751 1.117c-8.932 4.207-13.771 13.194-20.773 17.319m19.534-18.584c-5.431 4.594-8.914 10.182-18.327 18.429m2.108 1.126c-8.322-8.938-14.701-11.256-19.605-18.093m18.269 16.373c-6.983-5.683-12.783-10.612-19.03-17.245m.825 2.066c5.537-6.796 9.174-12.886 19.569-20.013m-19.562 17.351c3.746-4.516 8.683-9.161 17.355-16.599" class="B G"/><path d="M290.759 66.277c6.435-8.233 12.174-13.333 17.282-22.876m-14.869 21.049c4.988-5.633 10.175-13.058 16.281-19.225m-13.623 21.919c3.509-3.361 6.675-9.829 17.601-19.79m-18.302 20.501c5.89-8.491 11.209-13.72 15.878-19.777m-13.445 22.98c6.587-4.213 10.227-10.645 19.205-19.117M298.23 68.718c3.305-3.357 8.942-8.443 16.683-18.677m-14.966 22.838c5.809-6.416 11.997-8.701 18.015-19.71m-16.199 19.787c4.225-4.762 6.42-9.407 16.832-19.195m-15.242 23.652c5.658-5.732 8.216-12.724 17.794-21.362m-17.345 19.892c6.371-6.756 12.363-13.457 16.02-19.761M306.83 79.706c2.778-6.539 5.213-8.828 15.494-22.057m-15.845 19.687c3.739-3.274 8.687-7.38 15.849-18.213m-9.962 15.598c-9.648-3.467-16.089-10.222-20.872-16.977m18.655 17.604c-3.943-4.61-9.074-8.216-17.895-16.685m20.358 12.262c-5.101-.584-10.147-8.297-17.828-14.57m18.32 17.32c-8.193-7.964-14.789-14.005-18.462-16.877M314.15 69.12c-3.465-3.333-10.852-11.531-17.184-17.01m19.436 17.044c-4.896-4.015-9.886-7.932-18.915-16.364m22.883 15.922c-5.546-7.196-12.787-11.143-22.051-19.217m20.62 17.496c-5.035-4.638-9.331-8.097-19.12-15.015m21.421 13.54c-7.027-5.553-14.148-12.562-18.353-18.299m19.489 17.815c-8.182-6.029-14.417-12.442-19.037-16.104m20.183 12.075c-3.266-2.992-10.355-8.856-16.826-15.551m18.632 15.092c-6.739-4.43-13.152-9.427-19.719-15.312" stroke="#fa5252" class="B H"/><path d="M309.31 41.575c4.463 7.851 11.157 14.129 16.908 19.359M307.79 43.249c4.006 4.539 8.524 9.999 17.194 17.445m-1.769-.949c-4.118 6.85-5.624 11.112-14.492 17.584m16.364-15.357c-3.801 4.04-8.178 7.731-17.494 17.112m-1.709.63c-.288-2.959-4.632-9.328-16.871-18.085m18.37 16.097c-3.738-2.177-8.156-6.069-17.524-15.247m1.076-1.856c6.429-5.302 10.347-10.964 15.797-17.396M289.082 62.11c5.446-5.713 9.405-10.58 17.748-17.704" class="B G"/><path d="M624.125 67.041c4.747-9.273 10.192-14.372 16.801-19.134m-19.219 20.454c5.551-6.648 11.576-13.462 18.872-19.691m-13.973 21.334c4.694-4.329 10.836-10.985 13.998-19.008m-15.587 18.322c6.453-5.474 13.054-12.801 16.064-18.241m-11.954 19.896c5.264-4.476 11.397-10.552 15.876-15.276m-17.15 16.169c5.181-3.277 9.173-9.689 16.383-18.03m-12.349 22.04c3.427-7.247 7.485-9.708 17.548-18.417m-17.315 18.573c3.043-3.697 5.777-8.042 16.46-19.109m-16.585 20.192c5.677-3.985 8.3-9.188 18.593-18.482m-16.012 19.556c5.833-6.383 9.727-11.516 15.179-18.374m-12.348 20.415c3.812-5.402 10.409-11.575 16.404-18.331m-16.499 19.798c5.484-8.109 11.51-12.967 16.014-19.816M640.669 80c-4.319-7.561-10.33-12.513-18.313-18.425m18.921 16.431c-6.652-4.485-13.748-11.8-20.363-16.201m23.026 15.213c-4.718-5.496-8.139-9.299-17.724-16.92m17.167 15.665c-5.288-3.426-10.162-7.381-19.388-16.061m23.451 14.959c-5.87-5.474-14.104-11.023-20.673-18.771m18.901 17.851c-6.811-6.749-12.07-11.464-18.455-17.001m23.44 12.226c-6.268-6.087-13.441-9.372-18.707-12.9m17.178 13.498c-5.461-3.722-12.208-9.232-18.122-15.48m22.526 11.453c-7.419-5.046-11.648-8.884-21.556-13.044m19.908 14.586c-6.835-5.159-13.04-11.059-18.35-15.054m20.822 11.133c-4.803-2.275-11.179-7.781-19.141-15.752m19.39 17.535c-5.235-6.027-9.484-8.79-19.508-17.368" stroke="#fa5252" class="B H"/><path d="M639.742 46.543c2.213 3.073 7.833 11.322 15.029 19.461m-17.26-20.256c6.672 6.101 12.432 12.194 17.275 18.742m1.514 1.331c-6.839 4.19-9.062 6.357-18.478 14.068m18.095-15.287c-4.43 3.384-9.291 6.69-17.999 16.243m-.803 2.459c-6.621-6.253-11.803-13.017-18.149-20.429m19.251 19.16c-6.774-4.774-12.066-10.929-18.876-16.59m.371.744c5.978-5.862 9.131-8.39 18.107-20.284m-18.962 18.572c6.542-5.281 11.629-10.081 18.349-18.17" class="B G"/><path d="M591.992 268.079c6.789-8.746 13.599-15.163 17.505-20.836m-16.622 19.451c4.834-5.447 10.615-10.336 17.84-19.022m-12.919 22.957c5.515-8.742 12.085-16.781 16.133-17.751m-17.039 17.303c5.859-7.841 11.62-15.677 16.711-19.698m-15.473 23.051c6.322-9.515 12.457-16.862 18.783-19.783m-17.66 18.703c6.689-5.282 10.569-12.382 17.844-19.041m-14.331 23.243c5.293-5.816 5.846-8.333 16.188-19.599m-17.05 17.076c5.76-5.693 13.268-11.033 17.468-16.916m-15.203 23.265c7.581-8.659 11.932-16.133 16.924-20.804m-15.176 18.774c5.801-7.457 11.069-15.42 16.372-19.346m-12.49 21.324c.819-4.697 4.972-9.384 16.754-19.195m-18.786 19.847c6.848-7.677 12.65-12.727 16.253-18.761m-12.72 16.465c-1.978-4.772-9.242-8.533-18.58-17.184m18.751 16.542c-3.43-2.938-7.706-6.799-19.007-15.839m21.275 12.551c-4.4-1.843-5.149-6.54-17.009-13.775m16.962 15.014c-5.402-6.213-10.648-9.988-17.956-15.859m22.646 11.414c-5.094-3.597-11.525-9.833-21.415-16.606m19.296 17.69c-4.416-6.021-9.841-9.616-18.08-16.651m22.407 14.3c-3.716-3.409-10.57-7.201-18.095-16.409m17.647 17.09c-5.124-4.917-11.081-10.203-18.152-17.675m20.626 11.98c-5.31-2.861-13.253-10.521-18.161-16.105m17.942 17.624c-6.097-5.41-12.434-10.843-18.039-16.801m21.458 13.179c-7.054-3.978-12.994-9.464-19.537-16.801m19.111 18.116c-4.592-2.855-8.168-6.281-17.7-17.302" class="B H J"/><path d="M610.367 247.785c2.763 2.455 7.787 8.945 16.189 16.261m-18.191-16.777c4.674 3.055 7.882 7.589 16.905 16.262m.205 2.471c-7.234 3.515-13.189 11.641-18.396 14.824m18.427-17.291c-5.803 8.067-13.02 13.866-17.37 17.495m2.85-.38c-5.724-3.918-11.447-8.151-21.285-16.15m20.029 16.482c-6.768-5.174-13.856-13.029-19.403-17.649m2.413 1.096c4.883-5.654 9.219-12.854 14.359-18.222m-15.725 18.925c3.16-4.114 7.305-9.18 18.544-18.834" class="B G"/><path d="M895.465 254.211c3.201-6.815 6.197-11.3 13.832-20.451m-15.029 20.336c4.151-3.79 6.061-8.189 16.942-19.596m-14.359 23.514c4.014-5.565 11.773-13.509 16.649-17.951m-15.714 16.487c4.318-4.603 8.21-11.425 14.865-18.892m-11.605 22.197l15.555-19.073m-16.092 20.027c4.357-7.14 11.106-14.888 16.112-19.198m-12.383 22.631c2.245-8.693 5.765-11.122 13.907-19.107m-15.626 18.188c5.586-7.926 12.044-14.628 17.598-20.064m-15.192 23.437c2.84-3.87 8.757-10.66 16.906-20.284m-15.617 18.558c3.222-5.06 7.687-10.16 14.799-17.202m-12.787 20.267c5.132-5.086 9.353-8.101 16.941-17.027m-16.584 17.867c4.538-5.735 9.744-12.19 16.1-18.73m-11.686 16.8c-9.211-8.37-15.732-12.5-21.659-17.354m20.489 15.623c-3.583-2.329-7.623-5.453-18.201-14.995m20.854 14.641c-8.183-7.318-13.618-15.56-18.31-19.183m17.863 17.463c-2.664-4.074-7.316-8.265-18.235-17.466m19.647 13.947c-4.49-4.696-7.389-6.323-16.495-16.131m18.407 16.156c-4.746-2.061-8.354-6.977-19.572-16.862m21.254 14.938c-4.736-3.971-9.721-9.592-17.889-17.555m20.055 18.088c-7.838-7.027-13.423-13.549-20.296-16.333m22.014 11.205c-5.792-3.616-10.537-10.314-16.977-13.001m18.339 14.97c-6.712-5.29-12.654-9.994-19.587-17.434m22.791 12.86c-9.311-3.88-16.194-11.64-19.058-14.2m17.355 14.369c-6.225-4.782-12.293-10.835-18.717-15.128" class="B H J"/><path d="M909.551 232.284c5.21 6.054 12.241 12.891 18.692 17.891m-18.862-16.216c3.72 4.985 7.257 8.185 16.588 16.725m2.14-.674l-18.661 17.013m16.805-14.917c-5.108 4.471-11.084 10.639-17.625 15.734m-.952 2.37c-2.718-3.672-5.869-9.803-15.377-18.781m17.885 17.061c-6.038-2.753-9.794-8.355-19.972-17.538m.165-.589c7.822-2.848 11.726-8.446 20.007-17.676m-18.67 18.716c5.815-5.962 11.999-12.846 17.972-18.443" class="B G"/><text x="319.107" y="317.455" class="C D E F I">Commit 1</text><text x="309.284" y="25" class="C D E F K">Commit 3</text><text x="634.268" y="29.243" class="C D E F K">Commit 4</text><text x="602.8" y="311.249" class="C D E F I">Commit 2</text><text x="913.6" y="296.449" class="C D E F I">merge commit</text><text x="62" y="316.049" class="C D E F I">Initial commit</text><text x="868.1" y="163.447" fill="#364fc7" class="C D E F">Merge A</text><g class="B G L"><path d="M79.376 248.382l200.798-177.18" class="M"/><path d="M265.492 96.03c3.903-6.974 10.045-20.081 15.008-23.213m-28.558 7.801c8.979-1.225 20.204-8.551 28.558-7.801" class="N"/></g><g stroke="#364fc7" class="B L"><path d="M661.306 75.27l227.846 158.551" class="M"/><path d="M859.93 227.698c12.143 1.398 21.737 3.098 28.789 7.835m-17.078-24.686c7.616 7.881 12.649 16.143 17.077 24.686" class="N"/></g><path d="M336.914 56.544l269.933 1.885m-268.096.304l270.25.769" class="B G"/><text x="462.281" y="84.533" class="C D E F K">branch A</text><text x="132.315" y="115.423" class="C D E F K">Checkout A</text><text x="456.82" y="245.519" class="C D E F I">branch main</text></svg>