<svg width="512" height="512" viewBox="0 0 512 512" fill="none" xmlns="http://www.w3.org/2000/svg">
<circle cx="256.221" cy="255.179" r="215.6" fill="#0052C2"/>
<path d="M410.235 164.561C414.299 163.431 418.178 166.744 417.776 170.942L399.194 364.909C398.968 367.268 397.438 369.251 395.189 369.996C375.149 376.639 278.274 408.389 257.534 408.389C236.782 408.389 136.713 376.601 116.111 369.984C113.819 369.249 112.259 367.231 112.048 364.833L94.9308 170.85C94.5625 166.676 98.4081 163.396 102.449 164.506C133.326 172.993 240.851 202.207 257.534 202.139C274.176 202.072 379.546 173.098 410.235 164.561Z" fill="white"/>
<path d="M296.841 133.839C277.052 144.775 265.595 161.44 265.595 175.501C286.946 146.337 349.96 136.443 349.96 136.443L351.002 117.695C322.88 123.423 316.631 122.903 296.841 133.839Z" fill="white"/>
<path d="M325.484 154.149C289.654 162.065 270.629 181.75 265.595 190.603L387.456 159.357V138.526C380.165 141.13 370.27 144.254 325.484 154.149Z" fill="white"/>
<path d="M215.6 133.839C235.39 144.775 246.847 161.44 246.847 175.501C225.495 146.337 162.481 136.443 162.481 136.443L161.44 117.695C189.562 123.423 195.811 122.903 215.6 133.839Z" fill="white"/>
<path d="M186.958 154.149C222.787 162.065 241.813 181.75 246.847 190.603L124.986 159.357V138.526C132.277 141.13 142.171 144.254 186.958 154.149Z" fill="white"/>
</svg>
